<svg width="77" height="77" viewBox="0 0 77 77" fill="none" xmlns="http://www.w3.org/2000/svg">
<path d="M33.1318 2.79838C34.6218 -0.352214 39.0463 -0.50913 40.7557 2.528L51.641 21.8683C52.0772 22.6433 52.7433 23.2637 53.5475 23.6439L73.61 33.1319C76.7608 34.6218 76.9177 39.0464 73.8804 40.7557L54.5405 51.6411C53.7651 52.0772 53.1447 52.7433 52.7646 53.5476L43.2766 73.6101C41.7867 76.7609 37.3622 76.9178 35.6527 73.8805L24.7674 54.5405C24.3312 53.7652 23.6651 53.1447 22.8611 52.7646L2.79834 43.2767C-0.352252 41.7867 -0.509167 37.3622 2.52796 35.6528L21.8682 24.7674C22.6432 24.3312 23.2637 23.6651 23.6439 22.8612L33.1318 2.79838Z" fill="#6DD1F2"/>
</svg>
