<svg width="45" height="41" viewBox="0 0 45 41" fill="none" xmlns="http://www.w3.org/2000/svg">
<path fill-rule="evenodd" clip-rule="evenodd" d="M37.6876 34.5338C33.5474 38.6741 27.9321 41 22.0769 41C16.2218 41 10.6064 38.674 6.46622 34.5338C2.326 30.3936 5.48239e-05 24.7783 5.53358e-05 18.9231L7.79189 18.9231C7.79189 22.7117 9.29692 26.3452 11.9759 29.0242C14.6548 31.7031 18.2883 33.2082 22.0769 33.2082C25.8656 33.2082 29.499 31.7031 32.178 29.0242C34.8569 26.3452 36.362 22.7118 36.362 18.9231L44.1538 18.9231C44.1538 24.7783 41.8279 30.3936 37.6876 34.5338Z" fill="#00B587"/>
<path fill-rule="evenodd" clip-rule="evenodd" d="M37.6876 15.6105C33.5474 19.7507 27.9321 22.0767 22.0769 22.0767C16.2218 22.0767 10.6064 19.7507 6.46622 15.6105C2.326 11.4703 5.48239e-05 5.85493 5.53358e-05 -0.000221298L7.79189 -0.000220617C7.79189 3.78841 9.29692 7.42186 11.9759 10.1008C14.6548 12.7798 18.2883 14.2848 22.0769 14.2848C25.8656 14.2848 29.499 12.7798 32.178 10.1008C34.8569 7.42187 36.362 3.78841 36.362 -0.000214304L44.1538 -0.000213623C44.1538 5.85494 41.8279 11.4703 37.6876 15.6105Z" fill="#00B587"/>
</svg>
