<svg width="51" height="51" viewBox="0 0 51 51" fill="none" xmlns="http://www.w3.org/2000/svg">
<path fill-rule="evenodd" clip-rule="evenodd" d="M27.4785 1.97845C27.4785 0.885782 26.5927 0 25.5 0C24.4073 0 23.5216 0.885782 23.5216 1.97845V15.3218L18.5231 2.9501C18.1138 1.937 16.9607 1.44754 15.9476 1.85686C14.9345 2.26618 14.445 3.41928 14.8543 4.43238L20.0228 17.2248L10.2667 7.46877C9.49411 6.69614 8.24143 6.69614 7.4688 7.46877C6.69617 8.2414 6.69617 9.49409 7.4688 10.2667L16.904 19.702L4.62136 14.4883C3.61555 14.0613 2.45408 14.5306 2.02714 15.5364C1.60021 16.5422 2.06947 17.7037 3.07527 18.1306L15.7755 23.5215H1.97845C0.885782 23.5215 0 24.4073 0 25.5C0 26.5927 0.885782 27.4784 1.97845 27.4784H15.3219L2.95008 32.477C1.93697 32.8863 1.44751 34.0394 1.85683 35.0525C2.26615 36.0656 3.41925 36.5551 4.43236 36.1458L17.2248 30.9773L7.4688 40.7333C6.69617 41.5059 6.69617 42.7586 7.4688 43.5312C8.24143 44.3038 9.49411 44.3038 10.2667 43.5312L19.702 34.096L14.4883 46.3787C14.0613 47.3845 14.5306 48.546 15.5364 48.9729C16.5422 49.3999 17.7037 48.9306 18.1306 47.9248L23.5216 35.2245V49.0216C23.5216 50.1142 24.4073 51 25.5 51C26.5927 51 27.4785 50.1142 27.4785 49.0216V35.6782L32.477 48.05C32.8863 49.0631 34.0394 49.5526 35.0525 49.1432C36.0656 48.7339 36.5551 47.5808 36.1457 46.5677L30.9772 33.7751L40.7333 43.5312C41.5059 44.3038 42.7586 44.3038 43.5312 43.5312C44.3039 42.7586 44.3039 41.5059 43.5312 40.7333L34.0962 31.2982L46.3787 36.5118C47.3845 36.9388 48.546 36.4695 48.9729 35.4637C49.3998 34.4579 48.9306 33.2964 47.9248 32.8695L35.2243 27.4784H49.0216C50.1142 27.4784 51 26.5927 51 25.5C51 24.4073 50.1142 23.5215 49.0216 23.5215H35.6784L48.05 18.5231C49.0631 18.1138 49.5525 16.9607 49.1432 15.9476C48.7339 14.9345 47.5808 14.445 46.5677 14.8543L33.7751 20.0229L43.5312 10.2667C44.3039 9.49408 44.3039 8.24139 43.5312 7.46876C42.7586 6.69613 41.5059 6.69613 40.7333 7.46876L31.2982 16.9039L36.5118 4.62138C36.9387 3.61558 36.4695 2.45411 35.4637 2.02717C34.4579 1.60023 33.2964 2.06949 32.8695 3.0753L27.4785 15.7757V1.97845Z" fill="#F84944"/>
</svg>
