<svg width="80" height="80" viewBox="0 0 80 80" fill="none" xmlns="http://www.w3.org/2000/svg">
<path fill-rule="evenodd" clip-rule="evenodd" d="M40.0001 0C45.6165 0 50.1696 4.55304 50.1696 10.1695V69.8305C50.1696 75.447 45.6165 80 40.0001 80C34.3836 80 29.8306 75.447 29.8306 69.8305V10.1695C29.8306 4.55304 34.3836 0 40.0001 0Z" fill="#00B587"/>
<path fill-rule="evenodd" clip-rule="evenodd" d="M1.2127e-07 39.9999C1.88246e-07 34.3835 4.55304 29.8304 10.1695 29.8304L69.8305 29.8304C75.447 29.8304 80 34.3835 80 39.9999C80 45.6164 75.447 50.1694 69.8305 50.1694L10.1695 50.1694C4.55304 50.1694 5.42944e-08 45.6164 1.2127e-07 39.9999Z" fill="#00B587"/>
<path fill-rule="evenodd" clip-rule="evenodd" d="M11.7158 11.7157C15.6873 7.74426 22.1262 7.74426 26.0977 11.7157L68.2844 53.9024C72.2558 57.8739 72.2558 64.3128 68.2844 68.2843C64.313 72.2557 57.874 72.2557 53.9026 68.2843L11.7158 26.0975C7.74439 22.1261 7.74439 15.6871 11.7158 11.7157Z" fill="#00B587"/>
<path fill-rule="evenodd" clip-rule="evenodd" d="M11.7158 68.2843C7.74438 64.3129 7.74438 57.8739 11.7158 53.9025L53.9025 11.7157C57.874 7.74428 64.3129 7.74428 68.2844 11.7157C72.2558 15.6872 72.2558 22.1261 68.2844 26.0976L26.0977 68.2843C22.1262 72.2557 15.6873 72.2557 11.7158 68.2843Z" fill="#00B587"/>
</svg>
