<svg width="65" height="65" viewBox="0 0 65 65" fill="none" xmlns="http://www.w3.org/2000/svg">
<path d="M55.4852 55.4756C53.541 57.4197 50.3848 57.4197 48.4406 55.4756C47.5278 54.5629 46.9089 53.2892 46.1973 52.2166C44.0571 48.9937 41.8086 45.8275 39.5601 42.6716C37.5746 39.8045 35.5839 36.9425 33.5985 34.0754C33.2323 33.5494 32.8662 33.0234 32.5 32.4974C34.207 33.6783 35.914 34.8643 37.621 36.0504C40.9112 38.3348 44.2015 40.6141 47.4969 42.8985C48.8274 43.8215 53.2676 46.735 54.1186 47.3281C54.6033 47.6632 55.0675 48.0242 55.48 48.4367C57.4243 50.3808 57.4243 53.5315 55.48 55.4756H55.4852ZM31.4067 34.0754C29.4212 36.9425 27.4306 39.8045 25.4451 42.6716C23.2018 45.8275 20.9482 48.9885 18.808 52.2166C18.0963 53.2892 17.4774 54.5629 16.5646 55.4756C14.6204 57.4197 11.4643 57.4197 9.52003 55.4756C7.57581 53.5315 7.57581 50.3808 9.52003 48.4367C9.9326 48.0242 10.3916 47.6632 10.8815 47.3281C11.7324 46.735 16.1727 43.8267 17.5032 42.8985C20.7934 40.6141 24.0888 38.3348 27.379 36.0504C29.086 34.8695 30.793 33.6835 32.5 32.4974C32.1338 33.0234 31.7729 33.5494 31.4067 34.0754ZM32.5 64.9948C29.7513 64.9948 27.5234 62.7672 27.5234 60.0186C27.5234 59.4359 27.5956 58.8532 27.6988 58.2705C27.8844 57.2495 28.9623 52.0516 29.2511 50.4581C29.9679 46.5184 30.6795 42.5736 31.3912 38.6339C31.7625 36.5918 32.1338 34.5446 32.5 32.5026C32.6135 33.1317 32.7269 33.766 32.8456 34.3951C33.4644 37.8243 34.0884 41.2586 34.7073 44.6878C35.3519 48.5038 35.9965 52.3352 36.7649 56.1305C37.0176 57.3939 37.4818 58.7295 37.4818 60.0238C37.4818 62.7723 35.2539 65 32.5 65V64.9948ZM27.379 28.9445C24.0888 26.6601 20.7934 24.3808 17.5032 22.0964C16.1727 21.1733 11.7324 18.265 10.8815 17.672C10.3967 17.3368 9.9326 16.9707 9.52003 16.5633C7.57581 14.6192 7.57581 11.4685 9.52003 9.5244C11.4643 7.58033 14.6152 7.58033 16.5646 9.5244C17.4774 10.4371 18.0963 11.7108 18.808 12.7834C20.9482 16.0064 23.1966 19.1726 25.4451 22.3284C27.4306 25.1956 29.4212 28.0575 31.4067 30.9246C31.7729 31.4506 32.139 31.9766 32.5 32.5077C30.793 31.3217 29.086 30.1408 27.379 28.9548V28.9445ZM26.3682 33.6061C22.4282 34.3177 18.4831 35.0345 14.543 35.7461C12.9495 36.0349 7.75113 37.1127 6.73003 37.2983C6.14728 37.4014 5.56452 37.4736 4.98177 37.4736C2.23304 37.4736 0 35.2459 0 32.4974C0 29.7489 2.22788 27.5161 4.98177 27.5161C6.2762 27.5161 7.61191 27.9802 8.8754 28.2328C12.671 29.0012 16.4975 29.6458 20.3138 30.2904C23.7433 30.9092 27.1779 31.5331 30.6074 32.1519C31.2417 32.2654 31.8708 32.3788 32.5 32.4974C30.4578 32.8687 28.4104 33.24 26.3682 33.6061ZM55.4852 16.5581C55.0726 16.9706 54.6136 17.3316 54.1237 17.6668C53.2728 18.2598 48.8326 21.1682 47.502 22.0912C44.2066 24.3757 40.9164 26.6549 37.6262 28.9393C35.9192 30.1202 34.2122 31.3062 32.5052 32.4923C32.8713 31.9663 33.2375 31.4403 33.6036 30.9092C35.5891 28.042 37.5798 25.1801 39.5653 22.313C41.8086 19.1622 44.0622 15.996 46.2024 12.768C46.9141 11.6954 47.5329 10.4217 48.4458 9.50893C50.39 7.56486 53.5461 7.56486 55.4904 9.50893C57.4346 11.453 57.4346 14.6037 55.4904 16.5478L55.4852 16.5581ZM60.0234 37.4736C59.4406 37.4736 58.8579 37.4066 58.2751 37.2983C57.254 37.1127 52.0557 36.0349 50.4622 35.7461C46.5222 35.0345 42.577 34.3177 38.637 33.6061C36.5947 33.2348 34.5474 32.8635 32.5052 32.4974C33.1395 32.384 33.7687 32.2705 34.3978 32.1519C37.8273 31.5331 41.2619 30.9092 44.6914 30.2904C48.5076 29.6458 52.3394 29.0012 56.1298 28.2328C57.3933 27.9802 58.729 27.5161 60.0234 27.5161C62.7721 27.5161 65 29.7438 65 32.4974C65 35.2511 62.7721 37.4736 60.0234 37.4736ZM37.3064 6.72432C37.1208 7.74534 36.043 12.9433 35.7542 14.5367C35.0425 18.4764 34.3308 22.4213 33.614 26.361C33.2426 28.403 32.8765 30.4502 32.5052 32.4923C32.3917 31.8631 32.2782 31.2289 32.1648 30.5998C31.5459 27.1706 30.9219 23.7362 30.3031 20.307C29.6636 16.4911 29.0138 12.6597 28.2454 8.86949C27.9875 7.60611 27.5286 6.27053 27.5286 4.9762C27.5286 2.22769 29.7564 0 32.5052 0C35.2539 0 37.4869 2.22769 37.4869 4.9762C37.4869 5.55891 37.4147 6.14161 37.3116 6.72432H37.3064Z" fill="#7459F1"/>
</svg>
