<svg width="68" height="68" viewBox="0 0 68 68" fill="none" xmlns="http://www.w3.org/2000/svg">
<path fill-rule="evenodd" clip-rule="evenodd" d="M8.5 17C13.1944 17 17 13.1944 17 8.5C17 13.1944 20.8056 17 25.5 17C20.8056 17 17 20.8056 17 25.5C17 20.8056 13.1944 17 8.5 17ZM8.5 34C3.80558 34 0 30.1944 0 25.5C0 20.8056 3.80558 17 8.5 17C3.80558 17 0 13.1944 0 8.5C0 3.80558 3.80558 0 8.5 0C13.1944 0 17 3.80558 17 8.5C17 3.80558 20.8056 0 25.5 0C30.1944 0 34 3.80558 34 8.5C34 13.1944 30.1944 17 25.5 17C30.1944 17 34 20.8056 34 25.5C34 30.1944 30.1944 34 25.5 34C20.8056 34 17 30.1944 17 25.5C17 30.1944 13.1944 34 8.5 34ZM17 42.5C17 37.8056 13.1944 34 8.5 34C3.80558 34 0 37.8056 0 42.5C0 47.1944 3.80558 51 8.5 51C3.80558 51 0 54.8056 0 59.5C0 64.1944 3.80558 68 8.5 68C13.1944 68 17 64.1944 17 59.5C17 64.1944 20.8056 68 25.5 68C30.1944 68 34 64.1944 34 59.5C34 64.1944 37.8056 68 42.5 68C47.1944 68 51 64.1944 51 59.5C51 64.1944 54.8056 68 59.5 68C64.1944 68 68 64.1944 68 59.5C68 54.8056 64.1944 51 59.5 51C64.1944 51 68 47.1944 68 42.5C68 37.8056 64.1944 34 59.5 34C64.1944 34 68 30.1944 68 25.5C68 20.8056 64.1944 17 59.5 17C64.1944 17 68 13.1944 68 8.5C68 3.80558 64.1944 0 59.5 0C54.8056 0 51 3.80558 51 8.5C51 3.80558 47.1944 0 42.5 0C37.8056 0 34 3.80558 34 8.5C34 13.1944 37.8056 17 42.5 17C37.8056 17 34 20.8056 34 25.5C34 30.1944 37.8056 34 42.5 34C37.8056 34 34 37.8056 34 42.5C34 37.8056 30.1944 34 25.5 34C20.8056 34 17 37.8056 17 42.5ZM25.5 51C20.8056 51 17 54.8056 17 59.5C17 54.8056 13.1944 51 8.5 51C13.1944 51 17 47.1944 17 42.5C17 47.1944 20.8056 51 25.5 51ZM42.5 51C47.1944 51 51 54.8056 51 59.5C51 54.8056 54.8056 51 59.5 51C54.8056 51 51 47.1944 51 42.5C51 37.8056 54.8056 34 59.5 34C54.8056 34 51 30.1944 51 25.5C51 20.8056 54.8056 17 59.5 17C54.8056 17 51 13.1944 51 8.5C51 13.1944 47.1944 17 42.5 17C47.1944 17 51 20.8056 51 25.5C51 30.1944 47.1944 34 42.5 34C47.1944 34 51 37.8056 51 42.5C51 47.1944 47.1944 51 42.5 51ZM42.5 51C37.8056 51 34 54.8056 34 59.5C34 54.8056 30.1944 51 25.5 51C30.1944 51 34 47.1944 34 42.5C34 47.1944 37.8056 51 42.5 51Z" fill="#6DD1F2"/>
</svg>
