<svg width="109" height="109" viewBox="0 0 109 109" fill="none" xmlns="http://www.w3.org/2000/svg">
<path d="M0 27.25C0 12.2002 12.2002 0 27.25 0V27.25H0Z" fill="#FFC54A"/>
<path d="M0 81.7501H27.25V109C12.2002 109 0 96.7999 0 81.7501Z" fill="#FFC54A"/>
<path d="M54.5 27.25C69.5498 27.25 81.75 39.4502 81.75 54.5H54.5V27.25Z" fill="#FFC54A"/>
<path d="M54.5 54.5H81.75C81.75 69.5498 69.5498 81.75 54.5 81.75V54.5Z" fill="#FFC54A"/>
<path d="M27.25 54.5C27.25 39.4502 39.4502 27.25 54.5 27.25V54.5H27.25Z" fill="#FFC54A"/>
<path d="M27.25 54.5H54.5V81.75C39.4502 81.75 27.25 69.5498 27.25 54.5Z" fill="#FFC54A"/>
<path d="M81.75 0C96.7998 0 109 12.2002 109 27.25H81.75V0Z" fill="#FFC54A"/>
<path d="M0 54.5C0 39.4502 12.2002 27.25 27.25 27.25V54.5H0Z" fill="#FFC54A"/>
<path d="M0 54.5H27.25V81.75C12.2002 81.75 0 69.5498 0 54.5Z" fill="#FFC54A"/>
<path d="M81.75 27.25C96.7998 27.25 109 39.4502 109 54.5H81.75V27.25Z" fill="#FFC54A"/>
<path d="M81.75 54.5H109C109 69.5498 96.7998 81.75 81.75 81.75V54.5Z" fill="#FFC54A"/>
<path d="M54.5 109C39.4502 109 27.25 96.7999 27.25 81.7501L54.5 81.7501L54.5 109Z" fill="#FFC54A"/>
<path d="M54.5 109L54.5 81.7501L81.75 81.7501C81.75 96.7999 69.5498 109 54.5 109Z" fill="#FFC54A"/>
<path d="M27.25 27.25C27.25 12.2002 39.4502 1.45486e-07 54.5 3.24953e-07L54.5 27.25L27.25 27.25Z" fill="#FFC54A"/>
<path d="M54.5 27.25L54.5 0C69.5498 1.79467e-07 81.75 12.2002 81.75 27.25L54.5 27.25Z" fill="#FFC54A"/>
<path d="M81.75 81.7501H109C109 96.7999 96.7998 109 81.75 109V81.7501Z" fill="#FFC54A"/>
</svg>
