<svg width="67" height="67" viewBox="0 0 67 67" fill="none" xmlns="http://www.w3.org/2000/svg">
<path fill-rule="evenodd" clip-rule="evenodd" d="M27.2503 1.27502C29.2317 0.433252 31.3553 0 33.5 0V10.4116C33.5974 10.3093 33.6961 10.2081 33.7961 10.1081C35.3515 8.55272 37.1903 7.31127 39.2076 6.45462C41.225 5.59797 43.3813 5.14291 45.5534 5.11542C47.7256 5.08792 49.871 5.48853 51.8673 6.29437C53.8636 7.10021 55.6716 8.2955 57.1881 9.812L49.8261 17.1739C49.9673 17.1705 50.1086 17.1687 50.25 17.1687C52.4496 17.1687 54.6277 17.5911 56.6599 18.4118C58.6921 19.2326 60.5387 20.4355 62.094 21.952C63.6494 23.4685 64.8832 25.2689 65.725 27.2503C66.5667 29.2317 67 31.3553 67 33.5L56.5883 33.5C56.6907 33.5974 56.7919 33.6961 56.892 33.7962C58.4473 35.3516 59.6888 37.1904 60.5454 39.2077C61.4021 41.2251 61.8572 43.3813 61.8847 45.5535C61.9122 47.7256 61.5115 49.8711 60.7057 51.8674C59.8999 53.8637 58.7046 55.6717 57.1881 57.1882L49.826 49.8261C49.8295 49.9673 49.8312 50.1086 49.8312 50.25C49.8312 52.4496 49.4088 54.6277 48.5881 56.66C47.7674 58.6922 46.5644 60.5387 45.0479 62.094C43.5314 63.6494 41.7311 64.8832 39.7497 65.725C37.7683 66.5667 35.6446 67 33.5 67V56.5886C33.4026 56.6909 33.3039 56.792 33.2039 56.892C31.6485 58.4474 29.8097 59.6889 27.7923 60.5455C25.775 61.4022 23.6187 61.8572 21.4466 61.8847C19.2744 61.9122 17.129 61.5116 15.1327 60.7058C13.1364 59.8999 11.3284 58.7046 9.81192 57.1881L17.1741 49.8259C17.0329 49.8294 16.8915 49.8312 16.75 49.8312C14.5504 49.8312 12.3723 49.4087 10.3401 48.588C8.30785 47.7673 6.46134 46.5643 4.90596 45.0478C3.35058 43.5313 2.11678 41.731 1.27502 39.7496C0.433251 37.7682 0 35.6446 0 33.4999H10.4113C10.3091 33.4026 10.2079 33.3039 10.108 33.204C8.55262 31.6486 7.31116 29.8097 6.45451 27.7924C5.59787 25.7751 5.14281 23.6188 5.11531 21.4466C5.08782 19.2745 5.48843 17.129 6.29427 15.1328C7.10011 13.1365 8.2954 11.3285 9.8119 9.81199L17.174 17.1741C17.1705 17.0328 17.1687 16.8915 17.1687 16.75C17.1687 14.5504 17.5912 12.3723 18.4119 10.3401C19.2326 8.30785 20.4356 6.46134 21.9521 4.90596C23.4685 3.35058 25.2689 2.11678 27.2503 1.27502Z" fill="#FFC54A"/>
</svg>
