<svg width="72" height="24" viewBox="0 0 72 24" fill="none" xmlns="http://www.w3.org/2000/svg">
<path fill-rule="evenodd" clip-rule="evenodd" d="M19.6555 22.858C18.9898 23.2823 18.1179 22.8042 18.1179 22.0147V14.3273C18.1179 13.542 17.2543 13.0631 16.5883 13.4791L1.52968 22.8829C0.863622 23.2988 -3.43252e-08 22.8199 0 22.0347L9.19385e-07 1.0016C9.5371e-07 0.216332 0.863622 -0.262541 1.52968 0.153401L16.5883 9.55719C17.2543 9.97313 18.1179 9.49426 18.1179 8.709V1.02155C18.1179 0.232101 18.9898 -0.246051 19.6555 0.17832L35 9.9603V1.0016C35 0.216332 35.8636 -0.262541 36.5297 0.153401L51.5883 9.55719C52.2543 9.97313 53.1179 9.49426 53.1179 8.709V1.02155C53.1179 0.232101 53.9898 -0.246051 54.6555 0.17832L71.121 10.6749C71.7376 11.068 71.7376 11.9683 71.121 12.3614L54.6555 22.858C53.9898 23.2823 53.1179 22.8042 53.1179 22.0147V14.3273C53.1179 13.542 52.2543 13.0631 51.5883 13.4791L36.5297 22.8829C35.8636 23.2988 35 22.8199 35 22.0347V13.076L19.6555 22.858Z" fill="#EC74ED"/>
</svg>
