<svg xmlns="http://www.w3.org/2000/svg" width="60" height="53" fill="none" viewBox="0 0 60 53">
  <path fill="#00B587" fill-rule="evenodd" d="M50.286 5.875h3.43v3.58h2.327v-3.58h3.44V3.648h-3.44v-3.4h-2.327v3.4h-3.43v2.227Zm3.43 14.432h-3.43V18.08h3.43v-3.4h2.327v3.4h3.44v2.227h-3.44v3.58h-2.327v-3.58Zm-3.43 14.432h3.43v3.58h2.327v-3.58h3.44v-2.226h-3.44v-3.4h-2.327v3.4h-3.43v2.226ZM3.43 49.172H0v-2.227h3.43v-3.4h2.327v3.4h3.44v2.227h-3.44v3.58H3.43v-3.58Zm9.142 0h3.43v3.58h2.326v-3.58h3.44v-2.227h-3.44v-3.4h-2.326v3.4h-3.43v2.227Zm16.001 0h-3.43v-2.227h3.43v-3.4H30.9v3.4h3.44v2.227H30.9v3.58h-2.327v-3.58Zm9.141 0h3.43v3.58h2.327v-3.58h3.44v-2.227h-3.44v-3.4h-2.327v3.4h-3.43v2.227Zm12.572 0h3.43v3.58h2.327v-3.58h3.44v-2.227h-3.44v-3.4h-2.327v3.4h-3.43v2.227Zm-9.142-14.433h-3.43v-2.226h3.43v-3.4h2.327v3.4h3.44v2.226h-3.44v3.58h-2.327v-3.58Zm-16.001 0h3.43v3.58H30.9v-3.58h3.44v-2.226H30.9v-3.4h-2.327v3.4h-3.43v2.226Zm-9.141 0h-3.43v-2.226h3.43v-3.4h2.326v3.4h3.44v2.226h-3.44v3.58h-2.326v-3.58ZM0 34.74h3.43v3.58h2.327v-3.58h3.44v-2.226h-3.44v-3.4H3.43v3.4H0v2.226Zm37.714-14.432h3.43v3.58h2.327v-3.58h3.44V18.08h-3.44v-3.4h-2.327v3.4h-3.43v2.227Zm-9.141 0h-3.43V18.08h3.43v-3.4H30.9v3.4h3.44v2.227H30.9v3.58h-2.327v-3.58Zm-16.002 0h3.43v3.58h2.327v-3.58h3.44V18.08h-3.44v-3.4h-2.326v3.4h-3.43v2.227Zm-9.14 0H0V18.08h3.43v-3.4h2.327v3.4h3.44v2.227h-3.44v3.58H3.43v-3.58ZM41.143 5.875h-3.43V3.648h3.43v-3.4h2.327v3.4h3.44v2.227h-3.44v3.58h-2.327v-3.58Zm-16.001 0h3.43v3.58H30.9v-3.58h3.44V3.648H30.9v-3.4h-2.327v3.4h-3.43v2.227Zm-9.141 0h-3.43V3.648h3.43v-3.4h2.326v3.4h3.44v2.227h-3.44v3.58h-2.326v-3.58ZM0 5.875h3.43v3.58h2.327v-3.58h3.44V3.648h-3.44v-3.4H3.43v3.4H0v2.227Z" clip-rule="evenodd"/>
</svg>
